# xmcd
#
# Track frame offsets:
#	150
#	14203
#	29252
#	43876
#	60168
#	78162
#	92052
#	112133
#	128521
#	144213
#	161919
#	179614
#	196221
#	212860
#	227620
#
# Disc length: 3249 seconds
# Revision: 4
# Processed by: cddbd v1.5.2PL0 Copyright (c) Steve Scherf et al.
# Submitted via: dBpowerAMP V12.0
#
DISCID=cc0caf0f
DTITLE=DaddyYankee,AKARamónAyalaRodríguez,SanJuan,PuertoRico - Talento De Barrio
DYEAR=2008
DGENRE=Reggaeton and Hip Hop
TTITLE0=Talento De Barrio
TTITLE1=Pa-Kum-Pa!!
TTITLE2=Temblor
TTITLE3=Pose
TTITLE4=Llamado De Emergencia
TTITLE5=Oasis De Fantasía
TTITLE6=Salgo Pa' La Calle
TTITLE7=Que Tengo Que Hacer
TTITLE8=Suelta
TTITLE9=De La Paz Y De La Guerra
TTITLE10=Pasión
TTITLE11=Como y Vete
TTITLE12=K-ndela
TTITLE13=Infinito
TTITLE14=Somos De Calle
EXTD=
EXTT0=
EXTT1=
EXTT2=
EXTT3=
EXTT4=
EXTT5=
EXTT6=
EXTT7=
EXTT8=
EXTT9=
EXTT10=
EXTT11=
EXTT12=
EXTT13=
EXTT14=
PLAYORDER=
